
<?xml version="1.0" encoding="iso-8859-1"?>
<!-- Generator: Adobe Illustrator 16.0.0, SVG Export Plug-In . SVG Version: 6.00 Build 0)  -->
<!DOCTYPE svg PUBLIC "-//W3C//DTD SVG 1.1//EN" "http://www.w3.org/Graphics/SVG/1.1/DTD/svg11.dtd">
<svg version="1.1" id="Capa_1" xmlns="http://www.w3.org/2000/svg" xmlns:xlink="http://www.w3.org/1999/xlink" x="0px" y="0px"
   width="20" hei ght="20" viewBox="0 0 611.997 611.998" 
   xml:space="preserve">
<g>
  <g>
    <path d="M601.444,535.785L433.663,368.39c1.512-2.27,2.646-6.033,3.772-10.939c17.719-29.785,28.682-62.207,32.052-96.519
      c0.772-7.915,1.126-16.208,1.126-24.13c0-26.012-4.343-52.088-13.19-77.665c-11.51-33.243-29.905-62.842-55.426-88.218
      c-45.364-45.13-105.189-68.625-166.64-68.625c-60.702,0-120.801,23.607-166.269,68.625
      c-30.315,30.009-50.391,65.633-61.08,105.938c-10.802,40.755-10.553,80.681,0,121.026c10.561,40.346,30.652,75.67,61.08,105.945
      c45.355,45.131,105.567,68.617,166.269,68.617c47.125,0,89.964-13.625,129.688-38.455l6.033-3.771l168.529,168.15
      c6.418,6.402,13.199,10.176,19.609,10.932c1.504,0.377,2.638,0.449,3.764,0.377c4.537-0.297,8.695-1.463,12.065-3.395
      c4.552-2.598,9.427-6.41,14.703-11.686l7.544-7.537c5.276-5.285,9.089-10.158,11.688-14.703c1.922-3.369,3.016-7.922,3.016-13.576
      v-3.018C611.997,549.345,608.048,542.373,601.444,535.785z M422.354,287.33c-8.848,33.131-25.634,62.207-50.52,87.092
      c-36.194,36.188-84.832,56.553-136.478,56.553c-50.905,0-99.221-20.695-136.863-56.553c-73.957-70.466-73.651-202.198,0-273.34
      c37.2-35.937,85.588-56.93,136.863-56.93c53.914,0,98.892,19.11,136.478,56.93c24.62,24.765,41.849,53.536,50.52,86.714
      C431.024,220.973,431.226,254.103,422.354,287.33z"/>
    <polygon points="258.353,138.401 212.732,138.401 212.732,214.563 136.571,214.563 136.571,260.184 212.732,260.184 
      212.732,336.714 258.353,336.714 258.353,260.184 334.885,260.184 334.885,214.563 258.353,214.563     "/>
  </g>
</g>
<g>
</g>
<g>
</g>
<g>
</g>
<g>
</g>
<g>
</g>
<g>
</g>
<g>
</g>
<g>
</g>
<g>
</g>
<g>
</g>
<g>
</g>
<g>
</g>
<g>
</g>
<g>
</g>
<g>
</g>
</svg>
